<svg xmlns="http://www.w3.org/2000/svg" viewBox="0 0 33.866666 33.866666">
  <path d="m 20.783608,23.599641 c 0,-3.761712 0.03332,-4.905824 0.145618,-4.997609 0.53345,-0.436057 6.485463,-3.753867 6.73428,-3.753867 0.174308,0 0.421779,0.127272 0.584669,0.300689 l 0.28242,0.300679 v 3.631064 3.631057 l -0.302563,0.640725 c -0.500279,1.059442 -1.007831,1.458206 -4.270245,3.354998 -1.675182,0.973957 -3.07467,1.770828 -3.109984,1.770828 -0.03533,0 -0.06422,-2.195352 -0.06422,-4.878564 z m -0.291245,8.598724 c 1.473682,-0.84909 3.308489,-1.907631 4.077363,-2.352305 0.768873,-0.444684 1.964561,-1.130798 2.657071,-1.524694 2.044578,-1.162962 3.014189,-2.102396 3.745857,-3.629278 0.728917,-1.521171 0.780295,-1.970237 0.739661,-6.465536 -0.03462,-3.832079 -0.04808,-4.044462 -0.288061,-4.563808 -0.617743,-1.336656 -1.773223,-2.076466 -3.243148,-2.076466 -1.235062,0 -1.597186,0.179831 -8.504213,4.223183 l -2.096928,1.227539 -0.02985,8.473161 c -0.02395,6.791219 -8.33e-4,8.449226 0.116495,8.352581 0.08054,-0.0663 1.352118,-0.815279 2.825792,-1.664377 z M 16.356759,28.77465 V 23.712272 L 15.570406,23.251047 C 15.137915,22.997371 13.211366,21.888617 11.289174,20.787144 9.3669892,19.685679 7.2569573,18.469848 6.6002114,18.085289 L 5.406129,17.386106 v -1.568765 -1.568755 l 0.6698504,0.376287 c 1.0718789,0.602114 2.7500108,1.564564 6.6402716,3.808386 l 3.640508,2.099757 V 18.801119 17.069215 L 15.279168,16.4363 C 14.208096,15.807214 8.7878042,12.715164 4.5068417,10.291148 3.2754064,9.5938666 2.2400472,9.0233636 2.2060444,9.0233636 c -0.03402,0 -0.061792,2.2430184 -0.061792,4.9844854 v 4.984478 l 1.5435704,0.885471 c 0.8489686,0.48701 2.6968896,1.551885 4.1064882,2.366391 1.4096062,0.814497 3.2051,1.848979 3.989994,2.298836 l 1.427078,0.817917 v 1.627952 1.627952 L 12.658026,28.291988 C 11.14076,27.401267 2.2300061,22.303914 2.1901799,22.303914 c -0.025254,0 -0.045389,0.773248 -0.044695,1.718315 l 8.68e-4,1.718323 2.6490615,1.50653 c 3.1351251,1.782953 8.1629276,4.680726 10.0465616,5.790322 0.73684,0.434054 1.379024,0.791534 1.427077,0.794407 0.04808,0.0026 0.08738,-2.272851 0.08738,-5.057161 z m 1.2004,-12.991944 0.547039,-0.346929 V 11.190055 6.9443292 l 2.41729,-1.4021288 2.417299,-1.4021284 0.05824,4.2605496 0.05823,4.2605514 0.255517,-0.217083 c 0.140532,-0.119395 0.264697,-0.295719 0.27592,-0.391828 0.01121,-0.09611 0.01414,-2.011124 0.0069,-4.2555899 L 23.579833,3.7158255 21.978012,2.7957981 C 21.097011,2.2897835 19.623477,1.4336499 18.703483,0.89327896 17.160146,-0.01322974 17.007125,-0.07843564 16.724912,0.05014936 16.303045,0.24236346 3.2407267,7.8094221 2.9844211,8.0100725 2.8708353,8.0989949 2.9705358,8.2032756 3.3921599,8.4365016 4.4102834,8.9997076 13.591541,14.224581 15.250364,15.184765 c 0.897021,0.519224 1.660002,0.944234 1.695507,0.944459 0.03549,2.18e-4 0.310738,-0.15571 0.611608,-0.346518 z" />
  <style>
    path { fill: #000; }
    @media (prefers-color-scheme: dark) {
      path { fill: #FFF; }
    }
  </style>
</svg>