<?xml version="1.0" encoding="UTF-8" standalone="no"?>
<!-- Created with Inkscape (http://www.inkscape.org/) -->

<svg
   width="128"
   height="128"
   viewBox="0 0 33.866666 33.866666"
   version="1.1"
   id="svg1"
   xml:space="preserve"
   inkscape:version="1.4.3 (0d15f75042, 2025-12-25)"
   sodipodi:docname="logo.svg"
   xmlns:inkscape="http://www.inkscape.org/namespaces/inkscape"
   xmlns:sodipodi="http://sodipodi.sourceforge.net/DTD/sodipodi-0.dtd"
   xmlns="http://www.w3.org/2000/svg"
   xmlns:svg="http://www.w3.org/2000/svg"><sodipodi:namedview
     id="namedview1"
     pagecolor="#ffffff"
     bordercolor="#000000"
     borderopacity="0.25"
     inkscape:showpageshadow="2"
     inkscape:pageopacity="0.0"
     inkscape:pagecheckerboard="0"
     inkscape:deskcolor="#d1d1d1"
     inkscape:document-units="px"
     inkscape:zoom="5.6568542"
     inkscape:cx="16.528621"
     inkscape:cy="61.51829"
     inkscape:window-width="2560"
     inkscape:window-height="1366"
     inkscape:window-x="0"
     inkscape:window-y="0"
     inkscape:window-maximized="1"
     inkscape:current-layer="layer1" /><defs
     id="defs1" /><g
     inkscape:label="Layer 1"
     inkscape:groupmode="layer"
     id="layer1"><g
       id="g1"
       transform="matrix(1.1992145,0,0,1.1992145,49.145692,-4.4043738)"><rect
         style="fill:#f2f2f2;stroke-width:0.264583"
         id="rect1"
         width="28.020077"
         height="28.020077"
         x="-40.871254"
         y="3.783031"
         rx="14.010038"
         ry="14.010038" /><path
         style="fill:#000000;stroke-width:0.125419"
         d="m -27.529684,31.11111 c -1.459546,-0.137141 -2.210229,-0.283432 -3.252023,-0.633745 -3.327153,-1.118784 -6.182081,-3.678888 -7.768524,-6.966279 -0.68609,-1.421696 -1.098235,-2.837695 -1.312115,-4.507982 -0.08279,-0.646539 -0.08362,-2.184302 -0.0016,-2.887 0.213426,-1.827718 0.751915,-3.504336 1.609332,-5.010769 1.458895,-2.5631848 3.84774,-4.6534564 6.541256,-5.7236828 1.112729,-0.4421263 2.031448,-0.6744116 3.370637,-0.8522193 0.628637,-0.083466 2.341238,-0.083185 2.986551,4.889e-4 1.569991,0.203574 2.803375,0.5649246 4.157386,1.2180081 2.675115,1.2902959 4.878173,3.5042392 6.138173,6.1685001 0.598575,1.265683 0.934628,2.38779 1.133509,3.784875 0.476083,3.344342 -0.371252,6.84341 -2.344225,9.680468 -0.832142,1.196587 -1.926009,2.340013 -3.006539,3.142758 -1.961201,1.457008 -4.000793,2.274331 -6.343776,2.542134 -0.319448,0.03651 -1.66013,0.06774 -1.908074,0.04444 z m 2.010888,-0.545615 c 0.962356,-0.113909 1.800244,-0.312897 2.717818,-0.645447 0.464249,-0.168256 0.536698,-0.198861 1.099297,-0.464404 1.771818,-0.836288 3.495199,-2.268602 4.762822,-3.958419 2.109276,-2.811785 3.042318,-6.387008 2.547828,-9.762735 -0.234772,-1.602724 -0.72621,-3.030087 -1.528444,-4.43933 -1.224909,-2.1517343 -3.134093,-3.9546095 -5.363674,-5.0650122 -1.26739,-0.6311999 -2.535927,-1.0151746 -4.039806,-1.222812 -0.702408,-0.09698 -2.304862,-0.1046118 -2.986552,-0.014222 -1.269188,0.168287 -2.443426,0.4820576 -3.463697,0.9255399 -1.558712,0.6775268 -2.791085,1.5159826 -3.987423,2.712877 -0.757217,0.7575694 -1.276498,1.4048473 -1.798268,2.2415193 -1.0279,1.648263 -1.617589,3.366815 -1.855991,5.408976 -0.05711,0.489203 -0.05744,2.081772 -5.02e-4,2.555161 0.146058,1.214929 0.435666,2.406188 0.826903,3.40135 0.90581,2.304038 2.315719,4.231008 4.189759,5.726279 2.542997,2.029024 5.757056,2.970329 8.879956,2.600681 z m 2.668042,-3.14408 c -0.302993,-0.166657 -0.893301,-0.403037 -1.725562,-0.690975 -2.54492,-0.880466 -3.917184,-1.101903 -5.408977,-0.872824 -1.217318,0.18693 -2.263101,0.626773 -3.251803,1.367669 l -0.248659,0.186335 -0.07489,-0.07035 c -0.04119,-0.03869 -0.07489,-0.08506 -0.07489,-0.103029 0,-0.111697 0.540215,-0.689501 1.128252,-1.206758 0.746849,-0.656951 1.128088,-1.108226 1.410127,-1.669177 0.421187,-0.837709 0.560652,-1.637414 0.541818,-3.10682 l -0.01068,-0.833722 -0.130316,-0.244755 c -0.313803,-0.589372 -0.389684,-0.754146 -0.407103,-0.884013 -0.01671,-0.124587 -0.01015,-0.141964 0.06668,-0.176976 0.06425,-0.02927 0.121952,-0.02957 0.234598,-0.0012 0.249792,0.0629 0.252737,0.06109 0.252737,-0.154514 0,-0.449757 -0.203747,-0.899577 -0.50938,-1.124569 -0.267508,-0.196929 -0.485043,-0.255514 -0.873331,-0.235206 -0.265896,0.01391 -0.337734,0.03128 -0.52346,0.126533 -0.210298,0.107862 -0.21683,0.109 -0.282802,0.0493 -0.03714,-0.03361 -0.06739,-0.07747 -0.06721,-0.09745 6.28e-4,-0.06452 0.327107,-0.473626 0.515369,-0.645687 0.417738,-0.38179 1.108454,-0.566383 1.583896,-0.423297 l 0.152282,0.04584 0.01283,-1.331707 c 0.0105,-1.088897 0.02348,-1.389186 0.07123,-1.646953 0.154067,-0.831814 0.553536,-1.653851 1.092348,-2.247859 0.291156,-0.320994 0.294474,-0.328324 0.105322,-0.232729 -0.235328,0.118931 -0.653785,0.24498 -0.96374,0.290302 -0.351093,0.05134 -0.620796,0.01278 -1.424451,-0.203634 -0.58201,-0.156729 -0.65069,-0.168336 -0.902919,-0.152601 -0.326823,0.02039 -0.62108,0.143019 -0.850395,0.354395 -0.19937,0.183772 -0.390053,0.55246 -0.467775,0.90445 -0.0194,0.08785 -0.02198,0.08868 -0.144013,0.04608 -0.118033,-0.04121 -0.123722,-0.04985 -0.113541,-0.172416 0.05417,-0.652263 0.511163,-1.534203 0.994646,-1.919568 0.243366,-0.193977 0.6328,-0.396654 0.88612,-0.4611725 0.518477,-0.1320526 0.892928,-0.1008154 1.707386,0.1424335 0.302015,0.0902 0.647028,0.18642 0.766695,0.21382 0.705494,0.161535 1.322681,0.06879 2.068887,-0.3109069 0.180738,-0.091964 0.330065,-0.1632678 0.331839,-0.1584518 0.0018,0.00482 0.03811,0.048423 0.08075,0.096907 l 0.07753,0.088151 -0.309818,0.2319497 c -0.969444,0.725789 -1.507478,1.658752 -1.667389,2.891284 -0.04567,0.352039 -0.05296,0.915285 -0.05317,4.11249 -1.26e-4,2.135804 -0.01403,3.866185 -0.03278,4.086197 -0.08647,1.0145 -0.265243,1.715 -0.630919,2.472201 -0.170227,0.352488 -0.542162,0.956414 -0.70067,1.137705 -0.107215,0.122627 -0.124463,0.170467 -0.03723,0.103266 0.436836,-0.336521 0.93689,-0.881596 1.275465,-1.390298 0.414506,-0.622785 0.697177,-1.278935 0.857741,-1.991034 0.177723,-0.788194 0.172242,-0.67235 0.184495,-3.899109 0.0067,-1.76753 -7.72e-4,-2.990772 -0.01786,-2.949889 -0.06679,0.159049 -0.165582,0.715139 -0.174643,0.983057 -0.01582,0.467699 -0.0613,0.277598 -0.06199,-0.259076 -5.01e-4,-0.431794 0.03479,-0.862723 0.08619,-1.051004 0.05198,-0.190445 0.05146,-0.20739 -0.0034,-0.110636 -0.08801,0.155024 -0.215889,0.544049 -0.279076,0.848978 l -0.05846,0.282064 -0.02537,-0.197812 c -0.03517,-0.274156 0.0014,-0.976868 0.06721,-1.293442 0.116038,-0.5577 0.3322,-1.003464 0.640627,-1.321099 0.178542,-0.183872 0.150419,-0.201556 -0.07916,-0.04978 -0.227014,0.150087 -0.522473,0.45318 -0.645432,0.662113 -0.117599,0.199823 -0.101287,0.107813 0.03435,-0.193796 0.202664,-0.450632 0.458342,-0.737167 0.785076,-0.879822 0.08814,-0.03849 0.16364,-0.07266 0.167769,-0.07594 0.0041,-0.0033 -0.022,-0.08363 -0.05807,-0.178564 -0.155319,-0.408767 -0.03049,-1.111095 0.260643,-1.466371 l 0.06772,-0.08264 -0.03147,0.132736 c -0.04319,0.18212 -0.04308,0.677473 1.25e-4,0.83384 0.05979,0.216118 0.09033,0.231368 0.111157,0.0555 0.08075,-0.681877 0.716483,-1.368428 1.742623,-1.8819456 0.169595,-0.084871 0.386118,-0.1835254 0.481168,-0.2192331 l 0.172816,-0.064923 -0.09678,0.074254 c -0.377122,0.2893445 -0.599884,0.4815331 -0.77453,0.6682285 -0.207798,0.2221372 -0.423222,0.5117972 -0.398795,0.5362232 0.0076,0.0076 0.06507,-0.02507 0.127638,-0.07267 0.178419,-0.135718 0.691132,-0.369511 0.944906,-0.430868 0.270974,-0.065517 0.917314,-0.077723 1.725999,-0.032593 0.645203,0.036002 0.971926,-0.01354 1.4913,-0.2261319 l 0.132735,-0.054335 -0.112242,0.098165 c -0.213407,0.1866417 -0.770424,0.4331959 -1.240494,0.5490859 l -0.438357,0.108071 0.221736,0.03861 c 0.44543,0.07757 0.884776,0.251198 1.51958,0.600534 0.535696,0.294798 0.810286,0.379379 1.2361,0.380753 0.177949,5.77e-4 0.323544,0.0047 0.323544,0.009 0,0.0044 -0.06275,0.03999 -0.139437,0.07911 -0.271176,0.138342 -0.508144,0.201674 -0.83646,0.223551 l -0.328808,0.02191 0.212665,0.148357 c 0.116965,0.08159 0.404008,0.335454 0.637873,0.564126 0.510385,0.499055 0.687428,0.623908 1.087794,0.767122 0.229937,0.08225 0.289466,0.115122 0.242137,0.133699 -0.106248,0.0417 -0.417656,0.03185 -0.745477,-0.02361 -0.265122,-0.04485 -0.408723,-0.09029 -0.859383,-0.271981 -0.02685,-0.01082 0.01251,0.05411 0.08747,0.144308 0.07496,0.0902 0.207475,0.283455 0.294478,0.429464 0.274032,0.459893 0.497854,0.75445 0.78798,1.036997 0.154609,0.150573 0.27079,0.273768 0.25818,0.273768 -0.04246,0 -0.481687,-0.274898 -0.672984,-0.421199 -0.168998,-0.129247 -0.256214,-0.219392 -0.571707,-0.59091 -0.07957,-0.0937 -0.07816,-0.0859 0.02393,0.132735 0.201061,0.430584 0.330109,0.662443 0.515961,0.927026 0.190116,0.270652 0.550894,0.657287 0.785616,0.841923 l 0.132737,0.10441 -0.178353,-0.05153 c -0.294713,-0.08513 -0.743933,-0.293354 -1.003871,-0.465299 -0.134576,-0.08902 -0.255827,-0.166826 -0.269448,-0.172903 -0.03774,-0.01684 0.464085,1.437268 0.59233,1.716337 0.06199,0.134892 0.112704,0.253792 0.112704,0.264224 0,0.01043 -0.07588,-0.05514 -0.168624,-0.145704 -0.167455,-0.16353 -0.521313,-0.664667 -0.662072,-0.937631 -0.0404,-0.07835 -0.07805,-0.137875 -0.08366,-0.132267 -0.0056,0.0056 0.0034,0.278778 0.02006,0.60704 0.02899,0.571674 0.09781,1.026477 0.210608,1.391705 0.02791,0.09041 0.04563,0.169504 0.03936,0.175776 -0.01342,0.01342 -0.202832,-0.243568 -0.336285,-0.456289 -0.05153,-0.08213 -0.156729,-0.303521 -0.233787,-0.491979 -0.07706,-0.188457 -0.145894,-0.348438 -0.152969,-0.355513 -0.0071,-0.0071 -0.017,0.170859 -0.02205,0.395409 -0.0096,0.428462 0.0455,0.859042 0.162353,1.267648 0.03421,0.119637 0.04878,0.212802 0.03236,0.207033 -0.03809,-0.01338 -0.398119,-0.464719 -0.398119,-0.499074 0,-0.01417 -0.01493,-0.02577 -0.03319,-0.02577 -0.01825,0 -0.03319,0.04569 -0.03319,0.101527 0,0.153612 -0.148873,0.780923 -0.247599,1.043317 -0.04807,0.127759 -0.133689,0.314418 -0.190268,0.414801 -0.103224,0.18314 -0.325363,0.492475 -0.325363,0.453078 0,-0.01158 0.08041,-0.181713 0.17868,-0.378091 0.216711,-0.433048 0.328301,-0.759643 0.417528,-1.222011 0.08198,-0.424826 0.08228,-0.652047 0.0011,-0.82742 -0.03379,-0.073 -0.06255,-0.116681 -0.06391,-0.09706 -0.0085,0.123049 -0.147019,0.815565 -0.217107,1.085317 -0.189638,0.729877 -0.75083,1.59981 -1.309206,2.02947 -0.436449,0.33584 -0.776959,0.479822 -1.197228,0.506237 -0.368053,0.02313 -0.61706,-0.02629 -0.960202,-0.190561 -0.359783,-0.17224 -0.646405,-0.386489 -0.994084,-0.743075 -0.153176,-0.1571 -0.284276,-0.279861 -0.291332,-0.272806 -0.0071,0.0071 -0.0278,0.144576 -0.0461,0.305598 -0.103875,0.914159 -0.453107,1.862624 -0.974315,2.646093 -0.298982,0.449421 -0.546717,0.74367 -0.976781,1.160172 -0.202589,0.1962 -0.353299,0.356728 -0.334914,0.356728 0.01839,0 0.215928,-0.03629 0.438983,-0.08065 0.682114,-0.135641 1.072273,-0.162489 2.058592,-0.141659 1.294475,0.02734 2.108826,0.147339 3.241589,0.47768 1.378166,0.401904 1.905491,0.517538 2.356056,0.516644 0.692576,-0.0013 1.318994,-0.303379 1.736774,-0.837322 l 0.175646,-0.224483 0.122267,0.06273 c 0.06725,0.0345 0.122196,0.07356 0.122106,0.08682 -2.51e-4,0.03885 -0.223945,0.464262 -0.414373,0.788082 -0.512472,0.871455 -1.197778,1.540612 -1.917323,1.872143 -0.295094,0.135963 -0.93745,0.369489 -0.998667,0.363059 -0.02071,-0.0021 -0.134705,-0.05734 -0.253337,-0.122592 z m -1.760165,-6.26608 c 0.264812,-0.07444 0.486192,-0.194933 0.744787,-0.405376 0.205834,-0.167507 0.663227,-0.666568 0.63593,-0.693865 -0.02871,-0.02871 -1.099375,0.532444 -1.214711,0.636645 -0.158268,0.142986 -0.192304,0.151465 -0.102661,0.02558 0.141597,-0.198856 0.376925,-0.372654 0.787987,-0.581958 0.63862,-0.32517 0.711488,-0.378186 0.832893,-0.605963 0.186104,-0.349168 0.342368,-1.034951 0.277497,-1.21783 -0.01491,-0.04204 -0.04463,0.0127 -0.09911,0.182512 -0.09288,0.289528 -0.376702,0.913064 -0.39315,0.863718 -0.0063,-0.01911 0.01053,-0.151763 0.03756,-0.294773 0.02704,-0.143009 0.05945,-0.409345 0.07205,-0.591857 l 0.02289,-0.331839 -0.130615,0.199104 c -0.163571,0.249336 -0.668284,0.834607 -1.094746,1.269476 -0.406615,0.414629 -0.561841,0.486549 -1.005683,0.465957 -0.234525,-0.01087 -0.312427,-0.02959 -0.462223,-0.11103 -0.230142,-0.125118 -0.782194,-0.69334 -1.353926,-1.393585 l -0.107179,-0.131268 0.0076,0.680269 0.0076,0.68027 0.514805,0.265471 c 0.734746,0.378889 0.813619,0.430271 0.961845,0.626592 0.07302,0.09672 0.132769,0.183402 0.132769,0.192628 0,0.0092 -0.06347,-0.0424 -0.141032,-0.114712 -0.07757,-0.07232 -0.193296,-0.164889 -0.257175,-0.205713 -0.138491,-0.0885 -1.067684,-0.520649 -1.084135,-0.504199 -0.0063,0.0063 0.136466,0.155002 0.317262,0.33044 0.761134,0.73857 1.381246,0.965337 2.092812,0.76531 z m -0.23681,-1.367949 c 0.205305,-0.08333 0.407176,-0.269077 0.973122,-0.895391 0.517137,-0.572298 0.709202,-0.847219 0.823039,-1.178089 0.07313,-0.212555 0.17225,-0.658501 0.151071,-0.67968 -0.0074,-0.0074 -0.05738,0.07751 -0.11118,0.188578 -0.122065,0.251989 -0.240064,0.444633 -0.260086,0.424612 -0.0084,-0.0084 0.02363,-0.138239 0.07112,-0.288581 0.116125,-0.367605 0.189344,-0.853293 0.177284,-1.176003 -0.0083,-0.221423 -0.01948,-0.266939 -0.06798,-0.276199 -0.04663,-0.0089 -0.05807,0.0125 -0.05807,0.10859 0,0.130536 -0.121621,0.399177 -0.221619,0.489528 -0.197418,0.178368 -0.534776,0.206981 -0.788231,0.06686 -0.239763,-0.132555 -0.229983,-0.180584 0.02084,-0.102327 0.228557,0.07131 0.470141,0.0612 0.579943,-0.02429 0.05416,-0.04217 0.05001,-0.0434 -0.03891,-0.01148 -0.226014,0.08112 -0.600785,0.01745 -0.716249,-0.121671 -0.02667,-0.03213 0.007,-0.02614 0.10632,0.01892 0.172817,0.07841 0.488757,0.08901 0.619874,0.02079 0.130473,-0.06788 0.238303,-0.194634 0.28937,-0.340143 l 0.04477,-0.127585 -0.12227,-0.05628 -0.12227,-0.05628 -0.03938,0.152818 c -0.05026,0.195011 -0.131926,0.275347 -0.303244,0.298326 -0.124689,0.01673 -0.147604,0.0075 -0.261209,-0.106196 l -0.124529,-0.124529 -0.117887,0.136876 c -0.137684,0.159862 -0.196641,0.175348 -0.173684,0.04562 0.01323,-0.07481 0.0082,-0.08378 -0.02783,-0.04978 -0.06456,0.06089 -0.107188,0.05057 -0.08837,-0.02141 0.01192,-0.04561 -0.05149,-0.129954 -0.230766,-0.306951 l -0.247215,-0.244059 0.08713,0.199103 c 0.173963,0.397548 0.58322,1.030651 0.759751,1.175299 0.03158,0.02587 0.07302,0.07621 0.0921,0.111853 0.04397,0.08216 0.0456,0.0831 -0.436514,-0.253328 -0.52759,-0.368169 -0.882649,-0.673156 -1.125581,-0.966845 -0.113505,-0.13722 -0.213056,-0.249492 -0.221224,-0.249492 -0.04523,0 0.355904,0.690575 0.527944,0.908877 0.131722,0.167147 0.02686,0.11511 -0.160064,-0.07943 -0.073,-0.07598 -0.175519,-0.168997 -0.227808,-0.206707 l -0.09507,-0.06856 0.02264,0.07135 c 0.03291,0.103675 -0.0013,0.08855 -0.147637,-0.06528 l -0.129968,-0.136624 -0.113206,0.120033 c -0.120915,0.128207 -0.243194,0.154087 -0.396977,0.08402 -0.09767,-0.0445 -0.189557,-0.194408 -0.189557,-0.309245 0,-0.07646 -0.01316,-0.08614 -0.117185,-0.08614 -0.148253,0 -0.174989,0.06269 -0.0988,0.231642 0.06852,0.15195 0.196181,0.281327 0.325994,0.330374 0.147104,0.05558 0.40116,0.04141 0.572208,-0.0319 0.215923,-0.09256 0.2229,-0.05939 0.0098,0.04679 -0.229757,0.114492 -0.455737,0.11628 -0.678137,0.0053 l -0.163247,-0.08142 0.09955,0.08169 c 0.101838,0.08356 0.275604,0.147 0.403547,0.14733 0.03944,1.02e-4 0.162634,-0.02812 0.273767,-0.0627 0.230002,-0.07159 0.259498,-0.04217 0.07762,0.07738 -0.268486,0.176491 -0.635232,0.163078 -0.837414,-0.03062 -0.109211,-0.104632 -0.215221,-0.334648 -0.248734,-0.539698 -0.0257,-0.157247 -0.06598,-0.182499 -0.09659,-0.06055 -0.04017,0.160072 0.07633,0.985278 0.192223,1.361472 0.02785,0.0904 0.04503,0.169972 0.03818,0.176821 -0.01507,0.01506 -0.136181,-0.192767 -0.295507,-0.507112 -0.06475,-0.127758 -0.118337,-0.217354 -0.119068,-0.199103 -0.003,0.07517 0.162914,0.748352 0.243969,0.989803 0.04796,0.142868 0.137737,0.338758 0.199503,0.435313 0.207615,0.324555 1.131938,1.358859 1.358606,1.520262 0.227888,0.16227 0.61072,0.203874 0.877944,0.09541 z m -0.607961,-0.732689 -0.132736,-0.06282 0.389911,-0.0027 c 0.214451,-0.0015 0.38991,0.0044 0.38991,0.01305 0,0.0087 -0.04406,0.03852 -0.0979,0.06636 -0.132971,0.06877 -0.388115,0.0623 -0.549181,-0.01393 z m 0.01659,-0.371515 c -0.06388,-0.01948 -0.192082,-0.02772 -0.284897,-0.01833 -0.233043,0.02358 -0.296524,-0.02538 -0.09195,-0.07094 0.309517,-0.06893 1.438733,-0.0084 1.438733,0.07713 0,0.0076 -0.108263,0.01076 -0.240582,0.007 -0.132322,-0.0037 -0.345114,0.0038 -0.472871,0.01687 -0.141054,0.01437 -0.277905,0.0098 -0.348432,-0.01175 z m -0.05714,-0.735452 c -0.152403,-0.07927 -0.179322,-0.122653 -0.07612,-0.122653 0.03621,0 0.114612,0.04435 0.174217,0.09858 0.128093,0.116518 0.09515,0.124602 -0.0981,0.02408 z m 0.45387,0.01285 c 0.04207,-0.07861 0.13731,-0.13596 0.223294,-0.134454 0.05568,0.001 0.05521,0.0049 -0.0061,0.05231 -0.0365,0.02819 -0.108443,0.07342 -0.159869,0.100509 -0.09019,0.04751 -0.09222,0.04687 -0.05731,-0.01836 z m -2.757398,-2.126541 c -0.07696,-0.451606 -0.02679,-1.461373 0.09316,-1.87489 0.01059,-0.0365 0.0087,-0.05644 -0.0042,-0.04429 -0.01289,0.01214 -0.04327,0.09427 -0.06752,0.182512 -0.02425,0.08823 -0.04543,0.128427 -0.04706,0.08931 -0.0047,-0.110606 0.178294,-0.800841 0.275017,-1.037827 0.110066,-0.269675 0.08991,-0.301028 -0.03023,-0.04705 -0.400645,0.846895 -0.492798,1.888545 -0.247625,2.799046 0.05117,0.190035 0.06621,0.154728 0.02845,-0.06681 z m 3.433081,0.03703 0.193036,-0.09422 -0.110077,-0.06536 c -0.173119,-0.102797 -0.614281,-0.468026 -0.706216,-0.584662 -0.122298,-0.155156 -0.102316,-0.04534 0.03754,0.206259 0.117319,0.21107 0.376442,0.634466 0.387366,0.632939 0.0029,-3.76e-4 0.09218,-0.04314 0.198359,-0.09496 z m -1.814667,-0.111698 c -0.207611,-0.257111 -0.470631,-0.680967 -0.608041,-0.979857 l -0.148315,-0.322611 0.0196,0.481168 c 0.02982,0.732097 -0.0041,0.665939 0.411832,0.803014 0.445368,0.146768 0.427875,0.145784 0.324924,0.01828 z m 3.562888,0.05849 c 0,-0.0089 -0.100796,-0.06717 -0.223991,-0.129507 -0.123196,-0.06233 -0.418117,-0.241126 -0.655383,-0.39732 -0.319589,-0.210386 -0.39269,-0.248852 -0.282061,-0.148423 0.308974,0.280494 0.849524,0.603513 1.153139,0.689085 0.0046,0.0013 0.0083,-0.0049 0.0083,-0.01383 z m 0.348612,-0.490539 c -0.09135,-0.450839 -0.259688,-0.798598 -0.533784,-1.102709 l -0.119634,-0.132736 0.07521,0.132736 c 0.204283,0.360511 0.26699,0.486559 0.372159,0.748071 0.0627,0.155924 0.142143,0.402314 0.176529,0.547534 0.08189,0.345839 0.106323,0.186158 0.02952,-0.192896 z m -4.745693,0.307607 c 0.08334,0 0.08396,-0.0018 0.03416,-0.09807 -0.02789,-0.05394 -0.0859,-0.236865 -0.12891,-0.406502 l -0.07819,-0.308435 -0.03714,0.182512 c -0.04757,0.233777 -0.104382,0.597482 -0.104706,0.670281 -2.51e-4,0.05146 0.0098,0.05219 0.114828,0.0083 0.0633,-0.02644 0.153272,-0.04808 0.199955,-0.04808 z m 3.247519,0.05646 0.161203,-0.0418 -0.343715,-0.22288 c -0.189041,-0.122585 -0.417806,-0.278945 -0.508363,-0.347466 -0.181513,-0.137344 -0.176556,-0.118365 0.04546,0.174068 0.204357,0.269168 0.401673,0.481306 0.446953,0.480527 0.02049,-3.76e-4 0.109794,-0.01945 0.198456,-0.04244 z m -2.280404,-1.524854 c -0.60139,-1.201893 -0.661814,-1.278239 -0.505659,-0.638919 0.04456,0.182439 0.07492,0.337805 0.06747,0.345257 -0.02969,0.02969 -0.347749,-0.695343 -0.427979,-0.975621 -0.04702,-0.164261 -0.09271,-0.313589 -0.10154,-0.33184 -0.0088,-0.01825 -0.0076,0.136471 0.0027,0.343829 0.02954,0.594114 0.223061,1.242473 0.546928,1.832309 0.197844,0.360323 0.21626,0.352716 0.05182,-0.0214 -0.148698,-0.338314 -0.318575,-0.837415 -0.318575,-0.935978 0,-0.03047 0.08724,0.07857 0.193851,0.242297 0.106617,0.163733 0.256136,0.364894 0.332266,0.447025 l 0.138415,0.149326 -0.0869,-0.199102 c -0.0478,-0.109507 -0.107919,-0.247636 -0.133607,-0.306952 -0.07256,-0.16754 -0.02862,-0.127419 0.09086,0.08296 0.1175,0.206903 0.693687,1.103364 0.709174,1.103364 0.0052,0 -0.246432,-0.511447 -0.559215,-1.13655 z m -1.498681,0.691929 c 0.03094,-0.198913 0.107573,-0.570663 0.170298,-0.826112 0.06272,-0.255448 0.108446,-0.470048 0.101605,-0.476889 -0.02561,-0.02561 -0.215641,0.479378 -0.27053,0.718921 -0.05331,0.232624 -0.112929,0.998934 -0.07488,0.962333 0.0095,-0.0091 0.04257,-0.17934 0.0735,-0.378253 z m 4.061456,-0.326905 c -0.376697,-0.641899 -0.831232,-1.107793 -1.488467,-1.525665 l -0.210462,-0.133812 0.306598,0.306013 c 0.168627,0.168307 0.30001,0.312598 0.291961,0.320646 -0.008,0.008 -0.137353,-0.06148 -0.287343,-0.154506 -0.232284,-0.144066 -1.395325,-0.740295 -1.395325,-0.715307 0,0.0047 0.130661,0.106683 0.290358,0.226692 0.159698,0.120008 0.51435,0.415138 0.788119,0.655845 0.273767,0.240706 0.594821,0.522922 0.713454,0.627146 0.118631,0.104225 0.238093,0.202618 0.26547,0.218652 0.06931,0.04059 -0.2892,-0.37537 -0.61127,-0.709231 l -0.268102,-0.27792 0.248878,0.171286 c 0.136885,0.09421 0.374382,0.271536 0.527772,0.394063 0.417906,0.333822 0.429636,0.339126 0.259743,0.117452 -0.08636,-0.112683 -0.157021,-0.216652 -0.157021,-0.23104 0,-0.04837 0.335811,0.300612 0.571148,0.593541 0.1283,0.159698 0.238549,0.290359 0.245,0.290359 0.0064,0 -0.03428,-0.0784 -0.09051,-0.174214 z m 1.348811,-0.28046 c -0.235146,-0.42938 -0.430876,-0.691806 -0.794962,-1.06585 -0.201124,-0.206624 -0.474223,-0.458818 -0.606889,-0.560432 -0.132664,-0.101613 -0.241206,-0.188778 -0.241206,-0.1937 0,-0.01444 0.370449,0.103435 0.506053,0.161021 0.185401,0.07873 0.150989,0.04361 -0.08847,-0.0903 -0.472933,-0.264482 -1.02575,-0.450945 -1.479472,-0.499024 l -0.182512,-0.01935 0.199104,0.07898 c 0.450371,0.178648 0.960859,0.467023 1.211212,0.684215 l 0.116144,0.10076 -0.232288,-0.103886 c -0.290193,-0.129782 -0.647086,-0.265335 -0.647086,-0.245773 0,0.0081 0.123195,0.0767 0.273768,0.15242 0.800765,0.402693 1.66663,1.14621 1.976242,1.696996 0.04817,0.0857 0.09351,0.149899 0.100746,0.142665 0.0073,-0.0073 -0.04245,-0.114672 -0.110389,-0.23875 z m -6.326669,-0.254151 c 0.07373,-0.134339 0.249045,-0.399395 0.389591,-0.589016 0.243826,-0.328961 0.241699,-0.342942 -0.01726,-0.113502 l -0.113522,0.100579 0.07534,-0.132735 c 0.145286,-0.255943 0.319348,-0.454137 0.512203,-0.583215 0.201568,-0.13491 0.202721,-0.165418 0.0031,-0.08201 -0.26999,0.112808 -0.603811,0.521762 -0.790522,0.968438 -0.083,0.198566 -0.22738,0.675712 -0.204463,0.675712 0.0063,0 0.0718,-0.109914 0.145531,-0.244252 z m 3.295734,0.04546 c -0.358624,-0.262691 -0.73773,-0.628372 -1.107557,-1.068329 -0.165926,-0.197392 -0.308392,-0.358895 -0.316593,-0.358895 -0.02013,0 0.139565,0.272971 0.292269,0.499594 0.179938,0.267041 0.627722,0.672119 1.009892,0.913573 0.18251,0.115309 0.345683,0.210372 0.362604,0.21125 0.01692,9.01e-4 -0.09135,-0.08786 -0.240615,-0.197191 z m 1.714568,-0.472123 c -0.141989,-0.199403 -0.498795,-0.555197 -0.724785,-0.722733 -0.409302,-0.303426 -1.011188,-0.534441 -1.511045,-0.579965 l -0.198039,-0.01803 0.199103,0.06197 c 0.815717,0.253904 1.740828,0.787528 2.18805,1.262115 0.125216,0.132878 0.14282,0.131612 0.04671,-0.0034 z m 1.114721,-0.692279 c -0.145842,-0.152926 -0.496495,-0.431999 -0.784577,-0.624416 -0.220247,-0.14711 -0.50412,-0.293681 -0.988674,-0.510481 l -0.116144,-0.05197 0.132736,0.01655 c 0.529883,0.06607 1.156078,0.275114 1.576235,0.526202 0.210403,0.125737 0.230923,0.132948 0.132736,0.04664 -0.165922,-0.14584 -0.728034,-0.474003 -1.024739,-0.598247 -0.139062,-0.05823 -0.372303,-0.139879 -0.518313,-0.181438 -0.258069,-0.07345 -0.261308,-0.07562 -0.116144,-0.0778 0.08213,-0.0012 0.283106,0.01947 0.446613,0.04601 0.163507,0.02654 0.301773,0.04377 0.307258,0.03828 0.0055,-0.0055 -0.120828,-0.04891 -0.280694,-0.09648 -0.814794,-0.242518 -1.702879,-0.190528 -2.418102,0.14156 -0.148025,0.06873 -0.28033,0.143074 -0.294011,0.16521 -0.01575,0.02548 0.01183,0.02126 0.07522,-0.01151 0.05505,-0.02847 0.232155,-0.09246 0.393565,-0.142208 0.270198,-0.08328 0.335565,-0.09021 0.82441,-0.08749 0.373592,0.002 0.580115,0.01795 0.696862,0.05355 l 0.165919,0.05058 -0.481166,0.0069 c -0.651868,0.0093 -0.768411,0.03679 -0.398975,0.09397 0.826252,0.127889 1.939262,0.6281 2.566662,1.153514 0.202671,0.169725 0.238243,0.184558 0.103323,0.04309 z m 0.964421,-0.377156 c -0.07301,-0.06234 -0.267131,-0.182661 -0.431392,-0.267382 -0.355362,-0.183285 -0.286563,-0.116485 0.139009,0.134967 0.16771,0.09909 0.314186,0.19515 0.325501,0.213459 0.01132,0.0183 0.03836,0.03307 0.0601,0.0328 0.02173,-2.76e-4 -0.02021,-0.0515 -0.09321,-0.113839 z m -6.087352,-0.370332 c -0.05651,-0.04755 -0.141206,-0.15208 -0.18821,-0.232287 -0.104703,-0.178661 -0.130707,-0.187732 -0.06133,-0.02139 0.05904,0.141563 0.237966,0.340136 0.306475,0.340136 0.0252,0 -3.76e-4,-0.03891 -0.05694,-0.08646 z m 0.407533,-1.060191 c 0.05342,-0.159611 0.16434,-0.379784 0.275355,-0.54658 0.202042,-0.303558 0.160394,-0.299708 -0.0756,0.007 -0.339654,0.441407 -0.462751,0.915626 -0.35157,1.354401 0.01276,0.05033 0.02915,-0.04102 0.0417,-0.232287 0.01359,-0.207299 0.0513,-0.406769 0.110129,-0.582522 z m 0.519821,0.183051 c 0.196222,-0.193557 0.530459,-0.440178 0.76313,-0.563087 0.07689,-0.04062 0.07952,-0.03964 0.03581,0.01331 -0.03097,0.03753 0.03165,0.01838 0.182511,-0.05584 0.277123,-0.136324 0.506976,-0.225719 0.860148,-0.334531 0.325952,-0.100427 0.222089,-0.110138 -0.218238,-0.0204 -0.915275,0.186521 -1.629354,0.640717 -1.932242,1.229015 l -0.09308,0.180783 0.091,-0.116144 c 0.05005,-0.06388 0.189976,-0.213775 0.310947,-0.333104 z m 0.765705,-0.152259 c 0.554685,-0.226841 1.056778,-0.302793 1.625679,-0.245919 0.199073,0.0199 0.388271,0.04438 0.420439,0.05439 0.05153,0.01605 0.05214,0.01408 0.0051,-0.01648 -0.08958,-0.05826 -0.618775,-0.136234 -0.924609,-0.136234 -0.424937,0 -0.999799,0.167701 -1.303112,0.380149 -0.101614,0.07117 -0.06932,0.0646 0.176473,-0.03592 z"
         id="path1" /></g></g></svg>
