<?xml version="1.0" encoding="UTF-8" standalone="no"?>
<!-- Created with Inkscape (http://www.inkscape.org/) -->

<svg
   width="64"
   height="64"
   viewBox="0 0 16.933333 16.933333"
   version="1.1"
   id="svg1"
   inkscape:version="1.4.4 (dcaf3e7d9e, 2026-05-05)"
   sodipodi:docname="logo.svg"
   xmlns:inkscape="http://www.inkscape.org/namespaces/inkscape"
   xmlns:sodipodi="http://sodipodi.sourceforge.net/DTD/sodipodi-0.dtd"
   xmlns="http://www.w3.org/2000/svg"
   xmlns:svg="http://www.w3.org/2000/svg">
  <sodipodi:namedview
     id="namedview1"
     pagecolor="#ffffff"
     bordercolor="#000000"
     borderopacity="0.25"
     inkscape:showpageshadow="2"
     inkscape:pageopacity="0.0"
     inkscape:pagecheckerboard="0"
     inkscape:deskcolor="#d1d1d1"
     inkscape:document-units="px"
     inkscape:zoom="8.2528619"
     inkscape:cx="42.106605"
     inkscape:cy="18.417853"
     inkscape:window-width="2560"
     inkscape:window-height="1366"
     inkscape:window-x="0"
     inkscape:window-y="0"
     inkscape:window-maximized="1"
     inkscape:current-layer="layer1" />
  <defs
     id="defs1" />
  <g
     inkscape:label="Layer 1"
     inkscape:groupmode="layer"
     id="layer1">
    <rect
       style="fill:#f9f9f9;fill-opacity:1;stroke-width:0.288617"
       id="rect5"
       width="16.358114"
       height="16.358114"
       x="-8.1771859e-08"
       y="0.28760967"
       rx="4.5568194"
       ry="4.5568194" />
    <rect
       style="fill:#1a1a1a;fill-opacity:1;stroke-width:0.288617"
       id="rect3"
       width="16.358114"
       height="16.358114"
       x="0.57521904"
       y="0.28760967"
       rx="4.5568194"
       ry="4.5568194" />
    <path
       id="text3"
       style="font-weight:600;font-size:1.37228px;font-family:FreeSans;-inkscape-font-specification:'FreeSans Semi-Bold';writing-mode:lr-tb;direction:ltr;fill:#f9f9f9;fill-opacity:1;stroke-width:0.219083"
       d="M 2.8308959,6.242164 2.423864,8.1587593 h 0.1974298 l 0.044463,-0.2058977 c 0.055207,0.1340795 0.1550542,0.2662379 0.3890357,0.2662379 0.4942537,0 0.7733066,-0.5337388 0.7733066,-0.9622674 0,-0.294449 -0.1997221,-0.5155381 -0.4652548,-0.5155381 -0.278673,0 -0.400573,0.1550105 -0.4636662,0.2233645 L 3.0516163,6.242164 Z m 0.3059356,0 -0.051868,0.2154252 H 5.3223144 L 5.3657122,6.242164 Z m 2.3543267,0.01482 -0.9426841,4.434475 H 5.4615172 L 5.8325567,8.9331248 h 1.0458965 c 0.3467103,0 0.5176548,0.1094594 0.5176548,0.3345175 0,0.2189755 -0.2318326,0.8029457 -0.2318326,1.1739877 0,0.07299 0.012189,0.134259 0.048693,0.249829 h 0.9670307 l 0.036525,-0.164612 c -0.079073,-0.06082 -0.1095648,-0.1218 -0.1095648,-0.206956 0,-0.237224 0.1889602,-0.8876422 0.1889602,-1.2708495 0,-0.2311408 -0.1579549,-0.3957248 -0.474253,-0.4991299 0.2858848,-0.1399011 1.015727,-0.4989589 1.015727,-1.3809437 0,-0.334546 -0.2128418,-0.9119839 -1.0522489,-0.9119839 z m 5.5968178,0 -2.4760655,4.434475 H 9.5424202 L 10.035198,9.7974716 h 1.654592 l 0.109565,0.8939874 h 0.931039 l -0.59017,-4.4344746 z m 3.083701,0 -0.942683,4.434475 h 0.911984 L 15.084191,6.256984 Z M 4.0091183,6.7804617 4.1874918,8.1688156 4.0509326,8.3815942 C 3.9799515,8.4920125 3.9380768,8.5181536 3.840801,8.5181536 c -0.026282,0 -0.044924,-0.00216 -0.1159174,-0.010058 l -0.041288,0.1968997 c 0.047321,0.021032 0.078673,0.025935 0.1286191,0.025935 0.1866598,0 0.3204494,-0.088629 0.4334968,-0.2831755 L 5.2127464,6.7804621 H 4.9793252 L 4.3663959,7.8507067 4.2457147,6.7804621 Z M 3.2882117,6.9440154 c 0.1919163,0 0.3080518,0.1364757 0.3080518,0.3625705 0,0.1472246 -0.089787,0.7097913 -0.5367102,0.7097913 -0.178773,0 -0.2916442,-0.1310602 -0.2916442,-0.338752 0,-0.3496582 0.1995644,-0.7336098 0.5203026,-0.7336098 z m 2.9513759,0.073043 h 1.0215499 c 0.3710425,0 0.6695636,0.085458 0.6695636,0.4260865 0,0.2493888 -0.1463071,0.7293754 -0.8336467,0.7293754 H 5.9961102 Z m 5.1522064,0.2979959 0.212778,1.7218129 h -1.149639 z" />
  </g>
</svg>
