<?xml version="1.0" encoding="UTF-8" standalone="no"?>
<!-- Created with Inkscape (http://www.inkscape.org/) -->

<svg
   width="64"
   height="64"
   viewBox="0 0 16.933333 16.933333"
   version="1.1"
   id="svg1"
   inkscape:version="1.4.4 (dcaf3e7d9e, 2026-05-05)"
   sodipodi:docname="logo.svg"
   xmlns:inkscape="http://www.inkscape.org/namespaces/inkscape"
   xmlns:sodipodi="http://sodipodi.sourceforge.net/DTD/sodipodi-0.dtd"
   xmlns="http://www.w3.org/2000/svg"
   xmlns:svg="http://www.w3.org/2000/svg">
  <sodipodi:namedview
     id="namedview1"
     pagecolor="#ffffff"
     bordercolor="#000000"
     borderopacity="0.25"
     inkscape:showpageshadow="2"
     inkscape:pageopacity="0.0"
     inkscape:pagecheckerboard="0"
     inkscape:deskcolor="#d1d1d1"
     inkscape:document-units="px"
     inkscape:zoom="8.2528619"
     inkscape:cx="59.797438"
     inkscape:cy="41.56134"
     inkscape:window-width="2560"
     inkscape:window-height="1370"
     inkscape:window-x="0"
     inkscape:window-y="0"
     inkscape:window-maximized="1"
     inkscape:current-layer="layer1" />
  <defs
     id="defs1" />
  <g
     inkscape:label="Layer 1"
     inkscape:groupmode="layer"
     id="layer1">
    <g
       id="g7"
       transform="matrix(1.0351641,0,0,1.0351641,-0.2977227,-0.29772301)">
      <rect
         style="fill:#000000;fill-opacity:1;stroke:none;stroke-width:0.288617;stroke-opacity:1"
         id="rect3"
         width="16.358114"
         height="16.358114"
         x="0.28760937"
         y="0.28760967"
         rx="4.5568194"
         ry="4.5568194" />
      <path
         id="rect1"
         style="fill:#f2f2f2;stroke-width:0.323979"
         d="m 4.8446654,0.28783772 c -0.7276452,0 -1.4146599,0.16841109 -2.023649,0.469222 V 16.176273 c 0.6089891,0.300811 1.2960038,0.469222 2.023649,0.469222 h 0.478007 V 0.28783772 Z" />
      <path
         id="rect2"
         style="fill:#f2f2f2;stroke-width:0.43246"
         d="M 5.9448567,0.28783772 V 12.50518 h 4.4095503 c 2.237501,0 4.037996,-1.801015 4.037996,-4.0385135 V 3.0194539 c 0,-0.9462295 -0.321629,-1.8142772 -0.86248,-2.50113929 C 13.077444,0.36858455 12.592624,0.28783772 12.088668,0.28783772 Z" />
      <path
         id="path7"
         style="fill:#f2f2f2;stroke-width:0.323979"
         d="M 10.729061,4.0901895 10.26759,4.2136962 C 9.5647394,4.4020246 8.944493,4.7427185 8.4341103,5.1908975 L 11.50369,16.645495 h 0.584978 c 0.677013,0 1.318974,-0.146134 1.895491,-0.40876 z" />
    </g>
  </g>
</svg>
